<svg xmlns="http://www.w3.org/2000/svg" xmlns:xlink="http://www.w3.org/1999/xlink" width="500" zoomAndPan="magnify" viewBox="0 0 375 374.999991" height="500" preserveAspectRatio="xMidYMid meet" version="1.0"><defs><g/></defs><rect x="-37.5" width="450" fill="#ffffff" y="-37.499999" height="449.999989" fill-opacity="1"/><rect x="-37.5" width="450" fill="#ffffff" y="-37.499999" height="449.999989" fill-opacity="1"/><g fill="#000000" fill-opacity="0.4"><g transform="translate(123.115206, 285.954997)"><g><path d="M 50.875 0 L 4.46875 0 L 4.46875 -3.875 C 9.425781 -3.875 14.429688 -5.65625 19.484375 -9.21875 C 24.546875 -12.789062 28.164062 -17.253906 30.34375 -22.609375 L 95.203125 -177.921875 L 86.875 -198.140625 C 84.488281 -204.097656 80.816406 -208.066406 75.859375 -210.046875 C 70.898438 -212.023438 65.445312 -213.015625 59.5 -213.015625 L 59.5 -216.890625 L 111.5625 -216.890625 L 189.8125 -30.046875 C 193.976562 -20.328125 198.585938 -13.535156 203.640625 -9.671875 C 208.703125 -5.804688 214.90625 -3.875 222.25 -3.875 L 222.25 0 L 138.640625 0 L 138.640625 -3.875 L 146.671875 -3.875 C 154.410156 -3.875 158.820312 -6.398438 159.90625 -11.453125 C 161 -16.515625 160.0625 -22.613281 157.09375 -29.75 L 140.125 -71.109375 L 54.453125 -71.109375 L 34.8125 -23.796875 C 32.226562 -17.453125 32.722656 -12.546875 36.296875 -9.078125 C 39.867188 -5.609375 44.726562 -3.875 50.875 -3.875 Z M 97.28125 -173.453125 L 56.234375 -74.96875 L 138.34375 -74.96875 Z M 97.28125 -173.453125 "/></g></g></g><g fill="#545454" fill-opacity="1"><g transform="translate(109.966308, 272.806099)"><g><path d="M 50.875 0 L 4.46875 0 L 4.46875 -3.875 C 9.425781 -3.875 14.429688 -5.65625 19.484375 -9.21875 C 24.546875 -12.789062 28.164062 -17.253906 30.34375 -22.609375 L 95.203125 -177.921875 L 86.875 -198.140625 C 84.488281 -204.097656 80.816406 -208.066406 75.859375 -210.046875 C 70.898438 -212.023438 65.445312 -213.015625 59.5 -213.015625 L 59.5 -216.890625 L 111.5625 -216.890625 L 189.8125 -30.046875 C 193.976562 -20.328125 198.585938 -13.535156 203.640625 -9.671875 C 208.703125 -5.804688 214.90625 -3.875 222.25 -3.875 L 222.25 0 L 138.640625 0 L 138.640625 -3.875 L 146.671875 -3.875 C 154.410156 -3.875 158.820312 -6.398438 159.90625 -11.453125 C 161 -16.515625 160.0625 -22.613281 157.09375 -29.75 L 140.125 -71.109375 L 54.453125 -71.109375 L 34.8125 -23.796875 C 32.226562 -17.453125 32.722656 -12.546875 36.296875 -9.078125 C 39.867188 -5.609375 44.726562 -3.875 50.875 -3.875 Z M 97.28125 -173.453125 L 56.234375 -74.96875 L 138.34375 -74.96875 Z M 97.28125 -173.453125 "/></g></g></g><g fill="#000000" fill-opacity="0.302"><g transform="translate(80.92031, 279.017336)"><g><path d="M 87.171875 3.0625 C 71.066406 3.0625 56.585938 0.71875 43.734375 -3.96875 C 30.890625 -8.664062 20.898438 -13.5625 13.765625 -18.65625 L 12.234375 -61.171875 L 15.59375 -61.78125 C 19.675781 -51.175781 25.03125 -41.335938 31.65625 -32.265625 C 38.28125 -23.191406 46.691406 -15.953125 56.890625 -10.546875 C 67.085938 -5.148438 79.222656 -2.453125 93.296875 -2.453125 C 101.453125 -2.453125 108.992188 -4.132812 115.921875 -7.5 C 122.859375 -10.863281 128.414062 -15.601562 132.59375 -21.71875 C 136.78125 -27.832031 138.875 -34.96875 138.875 -43.125 C 138.875 -50.875 136.832031 -57.601562 132.75 -63.3125 C 128.664062 -69.019531 123.363281 -74.015625 116.84375 -78.296875 C 110.320312 -82.585938 103.441406 -86.3125 96.203125 -89.46875 C 88.960938 -92.625 82.078125 -95.53125 75.546875 -98.1875 C 63.515625 -103.082031 53.0625 -108.023438 44.1875 -113.015625 C 35.320312 -118.015625 28.492188 -124.03125 23.703125 -131.0625 C 18.910156 -138.101562 16.515625 -147.023438 16.515625 -157.828125 C 16.515625 -169.859375 19.625 -180.207031 25.84375 -188.875 C 32.0625 -197.539062 40.78125 -204.269531 52 -209.0625 C 63.21875 -213.851562 76.269531 -216.25 91.15625 -216.25 C 105.019531 -216.25 116.945312 -214.71875 126.9375 -211.65625 C 136.925781 -208.601562 144.878906 -205.445312 150.796875 -202.1875 L 152.015625 -166.703125 L 148.96875 -165.78125 C 143.25 -179.039062 134.9375 -189.953125 124.03125 -198.515625 C 113.125 -207.078125 98.898438 -211.359375 81.359375 -211.359375 C 73.203125 -211.359375 65.601562 -209.773438 58.5625 -206.609375 C 51.53125 -203.453125 45.925781 -198.914062 41.75 -193 C 37.570312 -187.09375 35.484375 -179.753906 35.484375 -170.984375 C 35.484375 -163.847656 37.210938 -157.628906 40.671875 -152.328125 C 44.140625 -147.023438 48.726562 -142.4375 54.4375 -138.5625 C 60.15625 -134.6875 66.378906 -131.269531 73.109375 -128.3125 C 79.835938 -125.351562 86.460938 -122.550781 92.984375 -119.90625 C 104.398438 -115.414062 115.101562 -110.617188 125.09375 -105.515625 C 135.09375 -100.421875 143.203125 -94.203125 149.421875 -86.859375 C 155.640625 -79.523438 158.75 -70.046875 158.75 -58.421875 C 158.75 -45.773438 155.28125 -34.8125 148.34375 -25.53125 C 141.414062 -16.257812 132.492188 -9.175781 121.578125 -4.28125 C 110.671875 0.613281 99.203125 3.0625 87.171875 3.0625 Z M 87.171875 3.0625 "/></g></g></g><g fill="#000000" fill-opacity="0.502"><g transform="translate(76.053587, 274.150613)"><g><path d="M 87.171875 3.0625 C 71.066406 3.0625 56.585938 0.71875 43.734375 -3.96875 C 30.890625 -8.664062 20.898438 -13.5625 13.765625 -18.65625 L 12.234375 -61.171875 L 15.59375 -61.78125 C 19.675781 -51.175781 25.03125 -41.335938 31.65625 -32.265625 C 38.28125 -23.191406 46.691406 -15.953125 56.890625 -10.546875 C 67.085938 -5.148438 79.222656 -2.453125 93.296875 -2.453125 C 101.453125 -2.453125 108.992188 -4.132812 115.921875 -7.5 C 122.859375 -10.863281 128.414062 -15.601562 132.59375 -21.71875 C 136.78125 -27.832031 138.875 -34.96875 138.875 -43.125 C 138.875 -50.875 136.832031 -57.601562 132.75 -63.3125 C 128.664062 -69.019531 123.363281 -74.015625 116.84375 -78.296875 C 110.320312 -82.585938 103.441406 -86.3125 96.203125 -89.46875 C 88.960938 -92.625 82.078125 -95.53125 75.546875 -98.1875 C 63.515625 -103.082031 53.0625 -108.023438 44.1875 -113.015625 C 35.320312 -118.015625 28.492188 -124.03125 23.703125 -131.0625 C 18.910156 -138.101562 16.515625 -147.023438 16.515625 -157.828125 C 16.515625 -169.859375 19.625 -180.207031 25.84375 -188.875 C 32.0625 -197.539062 40.78125 -204.269531 52 -209.0625 C 63.21875 -213.851562 76.269531 -216.25 91.15625 -216.25 C 105.019531 -216.25 116.945312 -214.71875 126.9375 -211.65625 C 136.925781 -208.601562 144.878906 -205.445312 150.796875 -202.1875 L 152.015625 -166.703125 L 148.96875 -165.78125 C 143.25 -179.039062 134.9375 -189.953125 124.03125 -198.515625 C 113.125 -207.078125 98.898438 -211.359375 81.359375 -211.359375 C 73.203125 -211.359375 65.601562 -209.773438 58.5625 -206.609375 C 51.53125 -203.453125 45.925781 -198.914062 41.75 -193 C 37.570312 -187.09375 35.484375 -179.753906 35.484375 -170.984375 C 35.484375 -163.847656 37.210938 -157.628906 40.671875 -152.328125 C 44.140625 -147.023438 48.726562 -142.4375 54.4375 -138.5625 C 60.15625 -134.6875 66.378906 -131.269531 73.109375 -128.3125 C 79.835938 -125.351562 86.460938 -122.550781 92.984375 -119.90625 C 104.398438 -115.414062 115.101562 -110.617188 125.09375 -105.515625 C 135.09375 -100.421875 143.203125 -94.203125 149.421875 -86.859375 C 155.640625 -79.523438 158.75 -70.046875 158.75 -58.421875 C 158.75 -45.773438 155.28125 -34.8125 148.34375 -25.53125 C 141.414062 -16.257812 132.492188 -9.175781 121.578125 -4.28125 C 110.671875 0.613281 99.203125 3.0625 87.171875 3.0625 Z M 87.171875 3.0625 "/></g></g></g><g fill="#000000" fill-opacity="1"><g transform="translate(71.186865, 269.283891)"><g><path d="M 87.171875 3.0625 C 71.066406 3.0625 56.585938 0.71875 43.734375 -3.96875 C 30.890625 -8.664062 20.898438 -13.5625 13.765625 -18.65625 L 12.234375 -61.171875 L 15.59375 -61.78125 C 19.675781 -51.175781 25.03125 -41.335938 31.65625 -32.265625 C 38.28125 -23.191406 46.691406 -15.953125 56.890625 -10.546875 C 67.085938 -5.148438 79.222656 -2.453125 93.296875 -2.453125 C 101.453125 -2.453125 108.992188 -4.132812 115.921875 -7.5 C 122.859375 -10.863281 128.414062 -15.601562 132.59375 -21.71875 C 136.78125 -27.832031 138.875 -34.96875 138.875 -43.125 C 138.875 -50.875 136.832031 -57.601562 132.75 -63.3125 C 128.664062 -69.019531 123.363281 -74.015625 116.84375 -78.296875 C 110.320312 -82.585938 103.441406 -86.3125 96.203125 -89.46875 C 88.960938 -92.625 82.078125 -95.53125 75.546875 -98.1875 C 63.515625 -103.082031 53.0625 -108.023438 44.1875 -113.015625 C 35.320312 -118.015625 28.492188 -124.03125 23.703125 -131.0625 C 18.910156 -138.101562 16.515625 -147.023438 16.515625 -157.828125 C 16.515625 -169.859375 19.625 -180.207031 25.84375 -188.875 C 32.0625 -197.539062 40.78125 -204.269531 52 -209.0625 C 63.21875 -213.851562 76.269531 -216.25 91.15625 -216.25 C 105.019531 -216.25 116.945312 -214.71875 126.9375 -211.65625 C 136.925781 -208.601562 144.878906 -205.445312 150.796875 -202.1875 L 152.015625 -166.703125 L 148.96875 -165.78125 C 143.25 -179.039062 134.9375 -189.953125 124.03125 -198.515625 C 113.125 -207.078125 98.898438 -211.359375 81.359375 -211.359375 C 73.203125 -211.359375 65.601562 -209.773438 58.5625 -206.609375 C 51.53125 -203.453125 45.925781 -198.914062 41.75 -193 C 37.570312 -187.09375 35.484375 -179.753906 35.484375 -170.984375 C 35.484375 -163.847656 37.210938 -157.628906 40.671875 -152.328125 C 44.140625 -147.023438 48.726562 -142.4375 54.4375 -138.5625 C 60.15625 -134.6875 66.378906 -131.269531 73.109375 -128.3125 C 79.835938 -125.351562 86.460938 -122.550781 92.984375 -119.90625 C 104.398438 -115.414062 115.101562 -110.617188 125.09375 -105.515625 C 135.09375 -100.421875 143.203125 -94.203125 149.421875 -86.859375 C 155.640625 -79.523438 158.75 -70.046875 158.75 -58.421875 C 158.75 -45.773438 155.28125 -34.8125 148.34375 -25.53125 C 141.414062 -16.257812 132.492188 -9.175781 121.578125 -4.28125 C 110.671875 0.613281 99.203125 3.0625 87.171875 3.0625 Z M 87.171875 3.0625 "/></g></g></g></svg>